<?xml version="1.0" standalone="no"?>
<!DOCTYPE svg PUBLIC "-//W3C//DTD SVG 20010904//EN"
 "http://www.w3.org/TR/2001/REC-SVG-20010904/DTD/svg10.dtd">
<svg version="1.0" xmlns="http://www.w3.org/2000/svg"
 width="100.000000pt" height="100.000000pt" viewBox="0 0 100.000000 100.000000"
 preserveAspectRatio="xMidYMid meet">
<metadata>
Created by potrace 1.11, written by Peter Selinger 2001-2013
</metadata>
<g transform="translate(0.000000,100.000000) scale(0.100000,-0.100000)"
fill="#000000" stroke="none">
<path d="M3 847 c-4 -6 -1 -7 8 -2 11 7 12 6 3 -6 -17 -23 -14 -58 7 -69 10
-6 19 -7 19 -3 1 4 9 -3 20 -16 11 -12 17 -27 14 -32 -3 -5 0 -9 7 -9 7 0 9
-3 6 -6 -3 -4 -2 -15 4 -26 6 -11 12 -27 14 -36 2 -9 18 -53 34 -96 17 -44 28
-83 25 -88 -3 -4 -1 -8 5 -8 5 0 13 -15 16 -32 4 -18 10 -37 14 -43 3 -5 6
-12 7 -15 2 -11 16 -46 25 -64 8 -13 7 -16 -1 -11 -7 4 -4 -5 6 -20 9 -15 19
-38 20 -52 2 -14 5 -27 8 -30 2 -3 34 -6 70 -7 60 -2 65 -1 77 23 7 14 14 35
16 45 2 11 8 25 14 33 6 7 9 13 6 13 -3 0 5 29 18 65 13 36 21 65 17 65 -4 0
-2 4 3 8 8 5 33 72 50 132 1 3 7 18 14 34 6 16 10 34 8 40 -2 6 2 17 10 24 7
7 13 22 13 33 0 11 4 17 10 14 5 -3 7 0 5 7 -7 18 16 48 40 52 11 2 19 11 19
20 -1 8 2 13 7 11 4 -3 7 4 6 15 -1 11 -5 20 -9 20 -4 0 -5 6 -2 13 5 15 -22
17 -45 2 -9 -5 -12 -4 -7 3 7 12 -32 11 -53 -3 -9 -5 -12 -4 -7 3 4 7 -3 9
-21 7 -16 -2 -28 -4 -28 -5 0 -1 -10 -3 -22 -4 -12 -1 -20 1 -17 6 3 4 -2 8
-10 8 -9 0 -16 -6 -17 -12 -1 -7 -2 -26 -3 -41 -2 -20 3 -31 18 -39 12 -6 22
-11 24 -10 1 1 2 -1 1 -4 0 -4 5 -10 11 -14 8 -5 7 -12 -5 -23 -8 -9 -16 -19
-15 -22 2 -33 -2 -45 -12 -39 -6 4 -8 3 -5 -3 7 -11 -27 -126 -34 -118 -3 3
-5 -5 -4 -18 1 -12 -1 -26 -5 -32 -7 -9 -32 -87 -36 -110 -2 -21 -16 -45 -26
-45 -5 0 -7 4 -4 8 3 5 -1 21 -9 36 -8 14 -10 24 -6 21 5 -3 4 6 -2 19 -7 13
-15 22 -18 20 -4 -2 -6 4 -4 13 1 10 -3 24 -9 32 -9 12 -8 13 4 6 12 -7 13 -6
4 6 -11 12 -60 141 -69 179 -2 8 -4 15 -5 15 -1 0 -3 10 -6 22 -2 12 -5 28 -6
35 -2 6 12 17 30 23 18 6 29 14 26 18 -4 4 -2 7 4 7 8 0 9 7 2 24 -5 13 -7 26
-4 29 3 2 -2 7 -10 10 -9 4 -18 2 -21 -4 -4 -5 -12 -6 -18 -2 -20 13 -49 14
-41 2 5 -8 1 -8 -13 0 -14 7 -24 7 -33 -2 -10 -9 -11 -9 -6 0 7 13 -31 12 -53
-2 -9 -5 -12 -4 -8 2 4 5 -7 10 -24 10 -16 0 -33 -5 -36 -10z"/>
<path d="M845 413 c-11 -2 -27 -7 -35 -10 -8 -3 -22 -5 -30 -4 -8 2 -12 0 -8
-5 5 -4 -1 -13 -12 -21 -38 -27 -47 -120 -16 -168 17 -26 74 -60 83 -51 3 3
14 1 24 -5 11 -5 19 -6 19 -1 0 4 8 8 18 8 42 2 86 35 89 68 1 11 6 22 10 25
10 7 10 32 0 48 -4 6 -2 13 3 15 6 2 2 13 -10 26 -11 12 -18 22 -14 22 4 0 -3
9 -16 20 -13 11 -27 20 -32 20 -15 0 -23 2 -38 9 -8 4 -24 6 -35 4z"/>
</g>
</svg>
